solid ascii
  facet normal 1.000000e+000 0.000000e+000 -0.000000e+000
    outer loop
      vertex   0.000000e+000 0.000000e+000 0.000000e+000
      vertex   0.000000e+000 2.870200e+001 0.000000e+000
      vertex   0.000000e+000 0.000000e+000 1.206500e+001
    endloop
  endfacet
  facet normal 1.000000e+000 -0.000000e+000 0.000000e+000
    outer loop
      vertex   0.000000e+000 0.000000e+000 1.206500e+001
      vertex   0.000000e+000 2.870200e+001 0.000000e+000
      vertex   0.000000e+000 2.870200e+001 1.206500e+001
    endloop
  endfacet
  facet normal 0.000000e+000 -1.000000e+000 0.000000e+000
    outer loop
      vertex   -4.191000e+001 0.000000e+000 0.000000e+000
      vertex   0.000000e+000 0.000000e+000 0.000000e+000
      vertex   -4.191000e+001 0.000000e+000 1.206500e+001
    endloop
  endfacet
  facet normal 0.000000e+000 -1.000000e+000 0.000000e+000
    outer loop
      vertex   -4.191000e+001 0.000000e+000 1.206500e+001
      vertex   0.000000e+000 0.000000e+000 0.000000e+000
      vertex   0.000000e+000 0.000000e+000 1.206500e+001
    endloop
  endfacet
  facet normal -1.000000e+000 0.000000e+000 0.000000e+000
    outer loop
      vertex   -4.191000e+001 2.870200e+001 0.000000e+000
      vertex   -4.191000e+001 0.000000e+000 0.000000e+000
      vertex   -4.191000e+001 2.870200e+001 1.206500e+001
    endloop
  endfacet
  facet normal -1.000000e+000 -0.000000e+000 0.000000e+000
    outer loop
      vertex   -4.191000e+001 2.870200e+001 1.206500e+001
      vertex   -4.191000e+001 0.000000e+000 0.000000e+000
      vertex   -4.191000e+001 0.000000e+000 1.206500e+001
    endloop
  endfacet
  facet normal 0.000000e+000 1.000000e+000 -0.000000e+000
    outer loop
      vertex   0.000000e+000 2.870200e+001 0.000000e+000
      vertex   -4.191000e+001 2.870200e+001 0.000000e+000
      vertex   0.000000e+000 2.870200e+001 1.206500e+001
    endloop
  endfacet
  facet normal 0.000000e+000 1.000000e+000 -0.000000e+000
    outer loop
      vertex   0.000000e+000 2.870200e+001 1.206500e+001
      vertex   -4.191000e+001 2.870200e+001 0.000000e+000
      vertex   -4.191000e+001 2.870200e+001 1.206500e+001
    endloop
  endfacet
  facet normal 0.000000e+000 0.000000e+000 1.000000e+000
    outer loop
      vertex   0.000000e+000 2.870200e+001 1.206500e+001
      vertex   -4.191000e+001 2.870200e+001 1.206500e+001
      vertex   0.000000e+000 0.000000e+000 1.206500e+001
    endloop
  endfacet
  facet normal 0.000000e+000 0.000000e+000 1.000000e+000
    outer loop
      vertex   0.000000e+000 0.000000e+000 1.206500e+001
      vertex   -4.191000e+001 2.870200e+001 1.206500e+001
      vertex   -4.191000e+001 0.000000e+000 1.206500e+001
    endloop
  endfacet
  facet normal 0.000000e+000 -0.000000e+000 -1.000000e+000
    outer loop
      vertex   -4.191000e+001 2.870200e+001 0.000000e+000
      vertex   0.000000e+000 2.870200e+001 0.000000e+000
      vertex   -4.191000e+001 0.000000e+000 0.000000e+000
    endloop
  endfacet
  facet normal 0.000000e+000 0.000000e+000 -1.000000e+000
    outer loop
      vertex   -4.191000e+001 0.000000e+000 0.000000e+000
      vertex   0.000000e+000 2.870200e+001 0.000000e+000
      vertex   0.000000e+000 0.000000e+000 0.000000e+000
    endloop
  endfacet
endsolid
